PathFileType	4	(X/Y/Z)	 s08c0403.trc
DataRate	CameraRate	NumFrames	NumMarkers	Units	OrigDataRate	OrigDataStartFrame	OrigNumFrames
200	200	4	50	mm	200	251	2000
Frame#	Time	racr			lacr			c7			jug			rlel			rdr			llel			ldr			s2			lic			ric			lasi			rasi			rpsi			lpsi			rgt			lgt			rth1			rth2			rth3			rth4			rlfc			rmfc			rsh1			rsh2			rsh3			rsh4			rlmal			rmmal			rcal			rtoe			rmt5			lth1			lth2			lth4			lth3			llfc			lmfc			llmal			lmmal			lcal			lmt5			lsh1			lsh2			lsh3			lsh4			ltoe			SBIKE			LBIKE			RBIKE			
		X1	Y1	Z1	X2	Y2	Z2	X3	Y3	Z3	X4	Y4	Z4	X5	Y5	Z5	X6	Y6	Z6	X7	Y7	Z7	X8	Y8	Z8	X9	Y9	Z9	X10	Y10	Z10	X11	Y11	Z11	X12	Y12	Z12	X13	Y13	Z13	X14	Y14	Z14	X15	Y15	Z15	X16	Y16	Z16	X17	Y17	Z17	X18	Y18	Z18	X19	Y19	Z19	X20	Y20	Z20	X21	Y21	Z21	X22	Y22	Z22	X23	Y23	Z23	X24	Y24	Z24	X25	Y25	Z25	X26	Y26	Z26	X27	Y27	Z27	X28	Y28	Z28	X29	Y29	Z29	X30	Y30	Z30	X31	Y31	Z31	X32	Y32	Z32	X33	Y33	Z33	X34	Y34	Z34	X35	Y35	Z35	X36	Y36	Z36	X37	Y37	Z37	X38	Y38	Z38	X39	Y39	Z39	X40	Y40	Z40	X41	Y41	Z41	X42	Y42	Z42	X43	Y43	Z43	X44	Y44	Z44	X45	Y45	Z45	X46	Y46	Z46	X47	Y47	Z47	X48	Y48	Z48	X49	Y49	Z49	X50	Y50	Z50	
251	1.2550	464.095993	1380.432075	-47.575834	476.926879	1396.552414	-395.316317	446.596420	1456.650739	-226.495714	432.813634	1301.127997	-219.417444	548.415202	1142.128403	19.447787	759.945612	927.769880	-51.961568	590.299311	1165.611706	-459.108457	763.451015	926.323068	-422.000922	-86.839585	1195.919811	-249.745519	92.411557	1173.608780	-385.965048	67.111641	1213.657089	-81.769809	111.873542	1118.476435	-354.959128	89.833896	1155.411645	-111.528047	-60.824466	1242.884113	-201.049911	-49.754285	1235.115973	-296.062380	-7.225638	1120.926678	-34.784920	5.012756	1056.012789	-414.716270	143.142182	1043.310097	-26.905046	231.252298	1031.869364	-27.813780	300.273814	978.330144	-29.694617	244.818322	1063.349533	-42.690413	400.730085	912.177478	-49.713764	385.613866	902.577578	-161.175526	325.810610	806.165081	-21.806001	307.204813	720.258963	-42.593766	249.279131	656.694437	-50.204680	332.900865	713.279528	-75.001127	189.467740	554.455524	-63.432638	207.603117	577.760942	-149.787406	108.108679	523.729724	-107.255210	407.559114	524.683411	-101.923841	318.145885	490.560570	-36.042423	46.137455	926.737649	-431.119042	89.560027	850.948672	-426.686949	123.834016	860.179716	-416.468938	88.118931	762.033290	-421.243904	114.946190	638.334261	-395.241036	111.225623	615.894481	-293.595657	65.685635	222.077443	-394.520179	88.755754	245.211866	-310.114337	3.689631	186.110858	-355.499026	215.754725	157.465573	-416.806607	93.437549	512.232318	-423.807625	105.147711	428.846024	-405.275872	77.267773	345.370178	-408.281796	125.537282	430.981127	-372.094052	292.508890	198.084399	-347.939722	-204.268640	918.868824	-225.672743	-5.998653	83.344393	-425.953787	-8.628308	80.290583	-27.584690	
252	1.2600	464.025561	1380.297225	-47.545145	476.998678	1396.554575	-395.109749	446.557994	1456.633620	-226.373598	432.773940	1301.079776	-219.364022	548.399001	1142.087193	19.594748	759.922378	927.772463	-51.896673	590.463122	1165.659323	-459.132415	763.452579	926.264188	-421.970112	-86.889021	1195.929920	-249.826834	92.356957	1173.625149	-385.952927	67.004523	1213.715570	-81.822106	111.856306	1118.477007	-354.971602	89.756644	1155.454626	-111.569060	-60.926017	1242.923514	-201.108029	-49.810910	1235.133434	-296.116195	-7.338913	1120.973706	-34.818466	4.995719	1056.002819	-414.748189	143.032915	1043.389504	-26.880053	231.161526	1031.960785	-27.761287	300.160977	978.482143	-29.574286	244.707544	1063.435463	-42.626403	400.636036	912.263141	-49.595630	385.540186	902.686018	-161.123138	325.646451	806.280108	-21.701264	306.999923	720.368024	-42.524122	249.068304	656.880055	-50.169109	332.749856	713.437780	-74.879795	189.205472	554.629288	-63.436974	207.417629	577.865290	-149.767207	107.851914	523.948516	-107.300473	407.291129	524.719405	-101.913135	317.840373	490.641767	-36.042843	46.156811	926.753319	-431.189280	89.590681	850.983981	-426.765204	123.871959	860.230460	-416.554942	88.203511	762.065653	-421.332910	115.093373	638.396867	-395.300552	111.429960	615.930578	-293.641626	66.106095	222.135233	-394.537523	89.176934	245.278950	-310.131714	4.100130	186.277774	-355.523349	216.131051	157.362662	-416.805045	93.652687	512.283972	-423.831650	105.443548	428.904348	-405.319612	77.604370	345.411064	-408.287368	125.836700	430.904769	-372.016557	292.945412	197.894444	-347.974841	-204.347134	918.833097	-225.733293	-5.999724	83.348427	-425.971262	-8.626974	80.282036	-27.591357	
253	1.2650	463.949244	1380.238134	-47.555101	477.086743	1396.534429	-394.945079	446.513139	1456.600218	-226.222735	432.771084	1301.035124	-219.309481	548.408649	1142.063414	19.651089	759.916937	927.752544	-51.880403	590.626639	1165.704521	-459.041840	763.447467	926.192083	-421.859234	-86.933728	1195.951035	-249.939316	92.343176	1173.617949	-385.984880	66.893661	1213.761685	-81.832850	111.833061	1118.510237	-354.983186	89.643715	1155.490101	-111.582609	-61.007685	1242.961885	-201.198875	-49.839694	1235.159840	-296.236648	-7.451423	1121.036558	-34.859262	4.987348	1056.004739	-414.784564	142.917409	1043.464851	-26.871602	231.014127	1032.027087	-27.686856	300.028548	978.582428	-29.487721	244.607987	1063.533917	-42.563658	400.548454	912.357240	-49.435182	385.468514	902.791340	-161.080323	325.517109	806.415525	-21.626389	306.824253	720.479225	-42.472552	248.861079	657.019462	-50.120825	332.538611	713.479595	-74.809590	188.931100	554.862358	-63.425254	207.215495	578.003774	-149.747555	107.553929	524.208823	-107.274570	407.005414	524.738876	-101.899873	317.521527	490.739635	-36.047852	46.131113	926.820083	-431.158689	89.643490	851.019274	-426.839259	123.921705	860.267399	-416.614859	88.274205	762.092556	-421.430540	115.255190	638.342603	-395.354616	111.608737	615.967107	-293.667408	66.547973	222.186637	-394.585962	89.708098	245.357904	-310.180014	4.540151	186.441773	-355.542938	216.547366	157.233948	-416.841929	93.890821	512.335966	-423.865146	105.773255	428.956499	-405.326228	77.982085	345.476712	-408.332632	126.163061	431.046498	-372.083902	293.363907	197.719363	-348.027732	-199.503090	922.716471	-220.392951	-6.000911	83.338182	-425.963076	-8.633265	80.292121	-27.609893	
254	1.2700	463.905887	1380.151998	-47.471496	477.127281	1396.514317	-394.780452	446.470897	1456.547920	-226.087336	432.731393	1300.986896	-219.256059	548.451583	1142.065620	19.716113	759.916377	927.735164	-51.861496	590.821684	1165.758260	-458.827031	763.454289	926.134650	-421.804637	-86.985262	1195.951717	-250.041710	92.365959	1173.667071	-386.050512	66.778771	1213.804685	-81.886514	111.797436	1118.530747	-355.010477	89.551634	1155.529338	-111.613768	-61.097128	1243.008491	-201.309678	-49.901730	1235.176599	-296.305747	-7.594587	1121.097781	-34.932593	4.981765	1056.023774	-414.855179	142.790225	1043.557541	-26.827174	230.923343	1032.089612	-27.636403	299.925740	978.661139	-29.408107	244.482306	1063.631346	-42.487056	400.457001	912.457605	-49.317765	385.398753	902.936253	-160.979409	325.369643	806.554713	-21.510019	306.608381	720.604573	-42.424199	248.643994	657.155821	-50.082726	332.391227	713.633269	-74.693914	188.665648	555.085402	-63.441321	207.001051	578.178410	-149.728318	107.256697	524.468220	-107.285030	406.719478	524.742464	-101.883418	317.202815	490.863281	-36.034372	46.156900	926.838972	-431.219154	89.685575	851.042947	-426.893007	123.978421	860.326965	-416.673135	88.363762	762.111525	-421.482607	115.423333	638.414209	-395.404649	111.848584	616.053860	-293.722275	67.004667	222.251648	-394.580153	90.223454	245.310235	-310.210354	5.000717	186.557864	-355.492913	216.924365	157.093119	-416.832248	94.174522	512.390270	-423.885079	106.108588	429.028709	-405.339125	78.365486	345.501588	-408.351505	126.482975	431.222001	-372.245039	293.793923	197.523175	-348.016666	-199.500688	922.736951	-220.396750	-6.005397	83.350825	-425.972675	-8.615522	80.264592	-27.608324	
